{
  "accessors": [
    {
      "bufferView": 2,
      "componentType": 5126,
      "count": 9962,
      "max": [
        5.965435028076172,
        3.8436050415039063,
        15.068205833435059
      ],
      "min": [
        -5.986021041870117,
        -5.0050811767578125,
        -0.7942519783973694
      ],
      "type": "VEC3"
    },
    {
      "bufferView": 2,
      "byteOffset": 119544,
      "componentType": 5126,
      "count": 9962,
      "max": [
        1.0,
        1.0,
        1.0
      ],
      "min": [
        -1.0,
        -1.0,
        -1.0
      ],
      "type": "VEC3"
    },
    {
      "bufferView": 3,
      "componentType": 5126,
      "count": 9962,
      "max": [
        1.0,
        1.0,
        0.9996296167373657,
        1.0
      ],
      "min": [
        -0.9999999403953552,
        -1.0,
        -0.9999762773513794,
        -1.0
      ],
      "type": "VEC4"
    },
    {
      "bufferView": 1,
      "componentType": 5126,
      "count": 9962,
      "max": [
        0.9289659857749939,
        0.8693739771842957
      ],
      "min": [
        0.006029999814927578,
        0.003848999971523881
      ],
      "type": "VEC2"
    },
    {
      "bufferView": 0,
      "componentType": 5125,
      "count": 41949,
      "type": "SCALAR"
    },
    {
      "bufferView": 2,
      "byteOffset": 239088,
      "componentType": 5126,
      "count": 9879,
      "max": [
        4.744359016418457,
        3.842499017715454,
        15.068205833435059
      ],
      "min": [
        -5.668796062469482,
        -5.065258979797363,
        -0.7942519783973694
      ],
      "type": "VEC3"
    },
    {
      "bufferView": 2,
      "byteOffset": 357636,
      "componentType": 5126,
      "count": 9879,
      "max": [
        1.0,
        1.0,
        1.0
      ],
      "min": [
        -1.0,
        -1.0,
        -1.0
      ],
      "type": "VEC3"
    },
    {
      "bufferView": 3,
      "byteOffset": 159392,
      "componentType": 5126,
      "count": 9879,
      "max": [
        1.0,
        1.0,
        0.9999995827674866,
        1.0
      ],
      "min": [
        -1.0,
        -1.0,
        -1.0,
        -1.0
      ],
      "type": "VEC4"
    },
    {
      "bufferView": 1,
      "byteOffset": 79696,
      "componentType": 5126,
      "count": 9879,
      "max": [
        0.9934589862823486,
        0.8524760007858276
      ],
      "min": [
        0.003495000069960952,
        0.005934000015258789
      ],
      "type": "VEC2"
    },
    {
      "bufferView": 0,
      "byteOffset": 167796,
      "componentType": 5125,
      "count": 42351,
      "type": "SCALAR"
    },
    {
      "bufferView": 2,
      "byteOffset": 476184,
      "componentType": 5126,
      "count": 8294,
      "max": [
        6.316842079162598,
        3.226957082748413,
        15.068205833435059
      ],
      "min": [
        -6.31951904296875,
        -4.987911224365234,
        -0.7942519783973694
      ],
      "type": "VEC3"
    },
    {
      "bufferView": 2,
      "byteOffset": 575712,
      "componentType": 5126,
      "count": 8294,
      "max": [
        1.0,
        1.0,
        1.0
      ],
      "min": [
        -1.0,
        -1.0,
        -1.0
      ],
      "type": "VEC3"
    },
    {
      "bufferView": 3,
      "byteOffset": 317456,
      "componentType": 5126,
      "count": 8294,
      "max": [
        1.0,
        1.0,
        1.0,
        1.0
      ],
      "min": [
        -1.0,
        -1.0,
        -1.0,
        -1.0
      ],
      "type": "VEC4"
    },
    {
      "bufferView": 1,
      "byteOffset": 158728,
      "componentType": 5126,
      "count": 8294,
      "max": [
        0.9492560029029846,
        0.8704990148544312
      ],
      "min": [
        0.0035000001080334187,
        0.006527999881654978
      ],
      "type": "VEC2"
    },
    {
      "bufferView": 0,
      "byteOffset": 337200,
      "componentType": 5125,
      "count": 37674,
      "type": "SCALAR"
    },
    {
      "bufferView": 2,
      "byteOffset": 675240,
      "componentType": 5126,
      "count": 9906,
      "max": [
        6.080996036529541,
        3.253415107727051,
        14.074999809265137
      ],
      "min": [
        -7.306159019470215,
        -4.743859767913818,
        -0.4801129996776581
      ],
      "type": "VEC3"
    },
    {
      "bufferView": 2,
      "byteOffset": 794112,
      "componentType": 5126,
      "count": 9906,
      "max": [
        1.0,
        1.0,
        1.0
      ],
      "min": [
        -1.0,
        -1.0,
        -1.0
      ],
      "type": "VEC3"
    },
    {
      "bufferView": 3,
      "byteOffset": 450160,
      "componentType": 5126,
      "count": 9906,
      "max": [
        1.0,
        1.0,
        1.0,
        1.0
      ],
      "min": [
        -1.0,
        -1.0,
        -1.0,
        -1.0
      ],
      "type": "VEC4"
    },
    {
      "bufferView": 1,
      "byteOffset": 225080,
      "componentType": 5126,
      "count": 9906,
      "max": [
        5.482373237609863,
        0.9923589825630188
      ],
      "min": [
        -8.600000001024455e-05,
        0.011753999628126621
      ],
      "type": "VEC2"
    },
    {
      "bufferView": 0,
      "byteOffset": 487896,
      "componentType": 5125,
      "count": 49272,
      "type": "SCALAR"
    },
    {
      "bufferView": 2,
      "byteOffset": 912984,
      "componentType": 5126,
      "count": 9426,
      "max": [
        3.2086501121520996,
        2.89308500289917,
        14.575419425964355
      ],
      "min": [
        -3.5130670070648193,
        -5.032023906707764,
        0.8265730142593384
      ],
      "type": "VEC3"
    },
    {
      "bufferView": 2,
      "byteOffset": 1026096,
      "componentType": 5126,
      "count": 9426,
      "max": [
        1.0,
        1.0,
        1.0
      ],
      "min": [
        -1.0,
        -1.0,
        -1.0
      ],
      "type": "VEC3"
    },
    {
      "bufferView": 3,
      "byteOffset": 608656,
      "componentType": 5126,
      "count": 9426,
      "max": [
        1.0,
        1.0,
        1.0,
        1.0
      ],
      "min": [
        -1.0,
        -1.0,
        -1.0,
        -1.0
      ],
      "type": "VEC4"
    },
    {
      "bufferView": 1,
      "byteOffset": 304328,
      "componentType": 5126,
      "count": 9426,
      "max": [
        0.9933379888534546,
        0.8660899996757507
      ],
      "min": [
        0.004637999925762415,
        0.008643999695777893
      ],
      "type": "VEC2"
    },
    {
      "bufferView": 0,
      "byteOffset": 684984,
      "componentType": 5125,
      "count": 45390,
      "type": "SCALAR"
    },
    {
      "bufferView": 2,
      "byteOffset": 1139208,
      "componentType": 5126,
      "count": 3477,
      "max": [
        4.681021213531494,
        2.5859758853912354,
        13.242239952087402
      ],
      "min": [
        -3.3118131160736084,
        -2.5859720706939697,
        2.238332986831665
      ],
      "type": "VEC3"
    },
    {
      "bufferView": 2,
      "byteOffset": 1180932,
      "componentType": 5126,
      "count": 3477,
      "max": [
        0.9997997879981995,
        0.9999998807907104,
        1.0
      ],
      "min": [
        -1.0,
        -0.9999998807907104,
        -1.0
      ],
      "type": "VEC3"
    },
    {
      "bufferView": 3,
      "byteOffset": 759472,
      "componentType": 5126,
      "count": 3477,
      "max": [
        1.0,
        0.9998414516448975,
        0.9999992847442627,
        1.0
      ],
      "min": [
        -1.0,
        -1.0,
        -0.9999998807907104,
        1.0
      ],
      "type": "VEC4"
    },
    {
      "bufferView": 1,
      "byteOffset": 379736,
      "componentType": 5126,
      "count": 3477,
      "max": [
        0.9904739856719971,
        0.8377259969711304
      ],
      "min": [
        0.0032939999364316463,
        0.003963999915868044
      ],
      "type": "VEC2"
    },
    {
      "bufferView": 0,
      "byteOffset": 866544,
      "componentType": 5125,
      "count": 9114,
      "type": "SCALAR"
    }
  ],
  "asset": {
    "extras": {
      "author": "Lobke Van Gheluwe (https://sketchfab.com/LobkeVGH)",
      "license": "CC-BY-4.0 (http://creativecommons.org/licenses/by/4.0/)",
      "source": "https://sketchfab.com/3d-models/vintage-telephone-paramount-classics-44a79d5b8dc649189179d3744768c0b8",
      "title": "Vintage Telephone -  Paramount Classics"
    },
    "generator": "Sketchfab-12.24.0",
    "version": "2.0"
  },
  "bufferViews": [
    {
      "buffer": 0,
      "byteLength": 903000,
      "name": "floatBufferViews",
      "target": 34963
    },
    {
      "buffer": 0,
      "byteLength": 407552,
      "byteOffset": 903000,
      "byteStride": 8,
      "name": "floatBufferViews",
      "target": 34962
    },
    {
      "buffer": 0,
      "byteLength": 1222656,
      "byteOffset": 1310552,
      "byteStride": 12,
      "name": "floatBufferViews",
      "target": 34962
    },
    {
      "buffer": 0,
      "byteLength": 815104,
      "byteOffset": 2533208,
      "byteStride": 16,
      "name": "floatBufferViews",
      "target": 34962
    }
  ],
  "buffers": [
    {
      "byteLength": 3348312,
      "uri": "scene.bin"
    }
  ],
  "images": [
    {
      "uri": "textures/material_0_baseColor.png"
    },
    {
      "uri": "textures/material_0_metallicRoughness.png"
    },
    {
      "uri": "textures/material_0_normal.png"
    }
  ],
  "materials": [
    {
      "doubleSided": true,
      "name": "material_0",
      "normalTexture": {
        "index": 2
      },
      "occlusionTexture": {
        "index": 3
      },
      "pbrMetallicRoughness": {
        "baseColorTexture": {
          "index": 0
        },
        "metallicRoughnessTexture": {
          "index": 1
        }
      }
    }
  ],
  "meshes": [
    {
      "name": "Object_0",
      "primitives": [
        {
          "attributes": {
            "NORMAL": 1,
            "POSITION": 0,
            "TANGENT": 2,
            "TEXCOORD_0": 3
          },
          "indices": 4,
          "material": 0,
          "mode": 4
        }
      ]
    },
    {
      "name": "Object_1",
      "primitives": [
        {
          "attributes": {
            "NORMAL": 6,
            "POSITION": 5,
            "TANGENT": 7,
            "TEXCOORD_0": 8
          },
          "indices": 9,
          "material": 0,
          "mode": 4
        }
      ]
    },
    {
      "name": "Object_2",
      "primitives": [
        {
          "attributes": {
            "NORMAL": 11,
            "POSITION": 10,
            "TANGENT": 12,
            "TEXCOORD_0": 13
          },
          "indices": 14,
          "material": 0,
          "mode": 4
        }
      ]
    },
    {
      "name": "Object_3",
      "primitives": [
        {
          "attributes": {
            "NORMAL": 16,
            "POSITION": 15,
            "TANGENT": 17,
            "TEXCOORD_0": 18
          },
          "indices": 19,
          "material": 0,
          "mode": 4
        }
      ]
    },
    {
      "name": "Object_4",
      "primitives": [
        {
          "attributes": {
            "NORMAL": 21,
            "POSITION": 20,
            "TANGENT": 22,
            "TEXCOORD_0": 23
          },
          "indices": 24,
          "material": 0,
          "mode": 4
        }
      ]
    },
    {
      "name": "Object_5",
      "primitives": [
        {
          "attributes": {
            "NORMAL": 26,
            "POSITION": 25,
            "TANGENT": 27,
            "TEXCOORD_0": 28
          },
          "indices": 29,
          "material": 0,
          "mode": 4
        }
      ]
    }
  ],
  "nodes": [
    {
      "children": [
        1
      ],
      "matrix": [
        1.0,
        0.0,
        0.0,
        0.0,
        0.0,
        2.220446049250313e-16,
        -1.0,
        0.0,
        0.0,
        1.0,
        2.220446049250313e-16,
        0.0,
        0.0,
        0.0,
        0.0,
        1.0
      ],
      "name": "Sketchfab_model"
    },
    {
      "children": [
        2,
        3,
        4,
        5,
        6,
        7
      ],
      "name": "lowpolyOBJ.obj.cleaner.materialmerger.gles"
    },
    {
      "mesh": 0,
      "name": "Object_2"
    },
    {
      "mesh": 1,
      "name": "Object_3"
    },
    {
      "mesh": 2,
      "name": "Object_4"
    },
    {
      "mesh": 3,
      "name": "Object_5"
    },
    {
      "mesh": 4,
      "name": "Object_6"
    },
    {
      "mesh": 5,
      "name": "Object_7"
    }
  ],
  "samplers": [
    {
      "magFilter": 9729,
      "minFilter": 9987,
      "wrapS": 10497,
      "wrapT": 10497
    },
    {
      "magFilter": 9729,
      "minFilter": 9729,
      "wrapS": 10497,
      "wrapT": 10497
    }
  ],
  "scene": 0,
  "scenes": [
    {
      "name": "Sketchfab_Scene",
      "nodes": [
        0
      ]
    }
  ],
  "textures": [
    {
      "sampler": 0,
      "source": 0
    },
    {
      "sampler": 0,
      "source": 1
    },
    {
      "sampler": 0,
      "source": 2
    },
    {
      "sampler": 1,
      "source": 1
    }
  ]
}
