{
  "accessors": [
    {
      "bufferView": 2,
      "componentType": 5126,
      "count": 31658,
      "max": [
        83.712615966796875,
        53.313350677490234,
        133.56755065917969
      ],
      "min": [
        -83.712593078613281,
        -53.058815002441406,
        -132.5101318359375
      ],
      "type": "VEC3"
    },
    {
      "bufferView": 2,
      "byteOffset": 379896,
      "componentType": 5126,
      "count": 31658,
      "max": [
        0.99997127056121826,
        0.99999517202377319,
        0.99987179040908813
      ],
      "min": [
        -0.99997127056121826,
        -0.99999821186065674,
        -0.99994546175003052
      ],
      "type": "VEC3"
    },
    {
      "bufferView": 3,
      "componentType": 5126,
      "count": 31658,
      "max": [
        0.9998161792755127,
        0.99976515769958496,
        0.99997866153717041,
        1
      ],
      "min": [
        -0.99999892711639404,
        -0.99975961446762085,
        -0.99975156784057617,
        -1
      ],
      "type": "VEC4"
    },
    {
      "bufferView": 1,
      "componentType": 5126,
      "count": 31658,
      "max": [
        0.9897657036781311,
        0.98520606756210327
      ],
      "min": [
        0.0058924946933984756,
        0.011546522378921509
      ],
      "type": "VEC2"
    },
    {
      "bufferView": 1,
      "byteOffset": 253264,
      "componentType": 5126,
      "count": 31658,
      "max": [
        0.9897657036781311,
        0.98520606756210327
      ],
      "min": [
        0.0058924946933984756,
        0.011546522378921509
      ],
      "type": "VEC2"
    },
    {
      "bufferView": 1,
      "byteOffset": 506528,
      "componentType": 5126,
      "count": 31658,
      "max": [
        0.9897657036781311,
        0.98520606756210327
      ],
      "min": [
        0.0058924946933984756,
        0.011546522378921509
      ],
      "type": "VEC2"
    },
    {
      "bufferView": 0,
      "componentType": 5125,
      "count": 178776,
      "max": [
        31657
      ],
      "min": [
        0
      ],
      "type": "SCALAR"
    }
  ],
  "asset": {
    "extras": {
      "author": "armadus (https://sketchfab.com/armadus)",
      "license": "CC-BY-4.0 (http://creativecommons.org/licenses/by/4.0/)",
      "source": "https://sketchfab.com/models/159d037db90e4ccfac56bd2e9041ecf2",
      "title": "Aquatic Alien"
    },
    "generator": "Sketchfab-3.38.0",
    "version": "2.0"
  },
  "bufferViews": [
    {
      "buffer": 0,
      "byteLength": 715104,
      "byteOffset": 0,
      "name": "floatBufferViews",
      "target": 34963
    },
    {
      "buffer": 0,
      "byteLength": 759792,
      "byteOffset": 715104,
      "byteStride": 8,
      "name": "floatBufferViews",
      "target": 34962
    },
    {
      "buffer": 0,
      "byteLength": 759792,
      "byteOffset": 1474896,
      "byteStride": 12,
      "name": "floatBufferViews",
      "target": 34962
    },
    {
      "buffer": 0,
      "byteLength": 506528,
      "byteOffset": 2234688,
      "byteStride": 16,
      "name": "floatBufferViews",
      "target": 34962
    }
  ],
  "buffers": [
    {
      "byteLength": 2741216,
      "uri": "scene.bin"
    }
  ],
  "images": [
    {
      "uri": "textures/zytha_surface_metallicRoughness.png"
    },
    {
      "uri": "textures/zytha_surface_emissive.png"
    },
    {
      "uri": "textures/zytha_surface_baseColor.png"
    },
    {
      "uri": "textures/zytha_surface_normal.png"
    }
  ],
  "materials": [
    {
      "doubleSided": true,
      "emissiveFactor": [
        1,
        1,
        1
      ],
      "emissiveTexture": {
        "index": 1,
        "texCoord": 0
      },
      "name": "zytha_surface",
      "normalTexture": {
        "index": 3,
        "scale": 1,
        "texCoord": 0
      },
      "occlusionTexture": {
        "index": 0,
        "strength": 1,
        "texCoord": 0
      },
      "pbrMetallicRoughness": {
        "baseColorFactor": [
          1,
          1,
          1,
          1
        ],
        "baseColorTexture": {
          "index": 2,
          "texCoord": 0
        },
        "metallicFactor": 0,
        "metallicRoughnessTexture": {
          "index": 0,
          "texCoord": 0
        },
        "roughnessFactor": 0.64195884150000004
      }
    }
  ],
  "meshes": [
    {
      "name": "zytha_zytha_surface_0",
      "primitives": [
        {
          "attributes": {
            "NORMAL": 1,
            "POSITION": 0,
            "TANGENT": 2,
            "TEXCOORD_0": 3,
            "TEXCOORD_1": 4,
            "TEXCOORD_2": 5
          },
          "indices": 6,
          "material": 0,
          "mode": 4
        }
      ]
    }
  ],
  "nodes": [
    {
      "children": [
        1
      ],
      "name": "RootNode (gltf orientation matrix)",
      "rotation": [
        -0.70710678118654746,
        -0,
        -0,
        0.70710678118654757
      ]
    },
    {
      "children": [
        2
      ],
      "name": "RootNode (model correction matrix)"
    },
    {
      "children": [
        3
      ],
      "matrix": [
        1,
        0,
        0,
        0,
        0,
        0,
        1,
        0,
        0,
        -1,
        0,
        0,
        0,
        0,
        0,
        1
      ],
      "name": "3b7862f034c6489faf575a392872eac4.fbx"
    },
    {
      "children": [
        4
      ],
      "name": "RootNode"
    },
    {
      "children": [
        5
      ],
      "matrix": [
        0.0099999997764825821,
        0,
        0,
        0,
        0,
        0.0099999997764825821,
        0,
        0,
        0,
        0,
        0.0099999997764825821,
        0,
        -1.6940658945086007e-21,
        0,
        0,
        1
      ],
      "name": "zytha"
    },
    {
      "mesh": 0,
      "name": "zytha_zytha_surface_0"
    }
  ],
  "samplers": [
    {
      "magFilter": 9729,
      "minFilter": 9987,
      "wrapS": 10497,
      "wrapT": 10497
    }
  ],
  "scene": 0,
  "scenes": [
    {
      "name": "OSG_Scene",
      "nodes": [
        0
      ]
    }
  ],
  "textures": [
    {
      "sampler": 0,
      "source": 0
    },
    {
      "sampler": 0,
      "source": 1
    },
    {
      "sampler": 0,
      "source": 2
    },
    {
      "sampler": 0,
      "source": 3
    }
  ]
}

